<svg width="19" height="20" fill="none" xmlns="http://www.w3.org/2000/svg"><path fill-rule="evenodd" clip-rule="evenodd" d="M15.817 3.547A9.13 9.13 0 009.296.827C4.215.827.079 4.987.077 10.102a9.32 9.32 0 001.23 4.638L0 19.547l4.887-1.29a9.164 9.164 0 004.405 1.129h.004c5.08 0 9.216-4.162 9.218-9.276a9.249 9.249 0 00-2.697-6.563zM9.296 17.82h-.003a7.617 7.617 0 01-3.9-1.075l-.28-.167-2.9.766.774-2.845-.182-.292a7.726 7.726 0 01-1.171-4.103c.001-4.251 3.439-7.71 7.665-7.71a7.59 7.59 0 015.417 2.261 7.689 7.689 0 012.242 5.455c-.002 4.251-3.439 7.71-7.662 7.71zm4.203-5.774c-.23-.116-1.363-.677-1.574-.754-.211-.078-.365-.116-.518.116-.154.232-.595.754-.73.908-.134.155-.268.175-.499.058-.23-.115-.972-.36-1.852-1.15-.685-.615-1.147-1.374-1.282-1.606-.134-.232 0-.345.101-.473.25-.311.5-.638.576-.792.077-.155.039-.29-.02-.407-.057-.115-.517-1.256-.71-1.72-.186-.452-.376-.391-.517-.398a9.15 9.15 0 00-.442-.009.844.844 0 00-.614.29c-.211.233-.806.793-.806 1.934s.825 2.243.94 2.398c.115.155 1.625 2.496 3.935 3.5.55.239.979.381 1.313.488a3.14 3.14 0 001.451.092c.443-.067 1.363-.561 1.555-1.102.192-.542.192-1.006.134-1.103-.057-.096-.211-.154-.441-.27z" fill="#9E9E9E"/></svg>