<svg xmlns="http://www.w3.org/2000/svg" xmlns:xlink="http://www.w3.org/1999/xlink"><symbol id="icon-arrowdown"><path d="M1 1l6 6 6-6" stroke="#181818" stroke-width="2" stroke-linecap="round" stroke-linejoin="round"/></symbol><symbol id="icon-book"><path d="M9.333 4.833A3.333 3.333 0 006 1.5H1V14h5.833a2.5 2.5 0 012.5 2.5m0-11.667V16.5m0-11.667A3.333 3.333 0 0112.667 1.5h5V14h-5.834a2.5 2.5 0 00-2.5 2.5" stroke="#586EB6" stroke-width="1.5" stroke-linecap="round" stroke-linejoin="round"/></symbol><symbol id="icon-burger"><path stroke="#181818" stroke-width="2" stroke-linecap="round" d="M1 1h16M1 6h16M1 11h16"/></symbol><symbol id="icon-comment"><path d="M16.375 11.607a1.667 1.667 0 01-1.667 1.666h-10l-3.333 3.334V3.273a1.667 1.667 0 011.667-1.666h11.666a1.666 1.666 0 011.667 1.666v8.334z" stroke="#9E9E9E" stroke-width="1.5" stroke-linecap="round" stroke-linejoin="round"/></symbol><symbol id="icon-fb"><path d="M17.656 0H2.344A2.346 2.346 0 000 2.344v15.312A2.346 2.346 0 002.344 20h15.312A2.346 2.346 0 0020 17.656V2.344A2.346 2.346 0 0017.656 0zm.782 17.656a.783.783 0 01-.782.782h-4.453V12.07h2.414l.399-2.422h-2.813v-1.68c0-.662.509-1.171 1.172-1.171h1.602V4.375h-1.602a3.593 3.593 0 00-3.593 3.6v1.673H8.437v2.422h2.345v6.367H2.344a.782.782 0 01-.781-.78V2.343c0-.431.35-.781.78-.781h15.313c.431 0 .782.35.782.78v15.313z" fill="#9E9E9E"/></symbol><symbol id="icon-instagram"><path d="M18.907 6.33c-.044-.994-.205-1.678-.436-2.27A4.568 4.568 0 0017.39 2.4a4.608 4.608 0 00-1.657-1.08c-.596-.23-1.277-.39-2.271-.435C12.457.838 12.14.827 9.598.827s-2.86.01-3.859.055c-.995.043-1.679.204-2.271.435a4.569 4.569 0 00-1.661 1.082A4.609 4.609 0 00.728 4.056c-.23.596-.391 1.276-.435 2.27C.245 7.33.234 7.647.234 10.189s.011 2.86.055 3.859c.044.994.205 1.678.435 2.27a4.617 4.617 0 001.083 1.66 4.608 4.608 0 001.657 1.08c.596.23 1.276.391 2.271.435.999.044 1.317.055 3.86.055 2.541 0 2.86-.011 3.858-.055.995-.044 1.679-.205 2.272-.435a4.789 4.789 0 002.74-2.74c.23-.595.39-1.276.434-2.27.044-.999.055-1.317.055-3.859 0-2.541-.003-2.86-.047-3.858zm-1.686 7.643c-.04.915-.194 1.408-.322 1.738a3.106 3.106 0 01-1.778 1.777c-.33.128-.827.282-1.737.322-.988.044-1.284.055-3.782.055-2.499 0-2.799-.011-3.783-.055-.914-.04-1.408-.194-1.737-.322a2.882 2.882 0 01-1.075-.699 2.911 2.911 0 01-.699-1.075c-.128-.329-.281-.826-.322-1.737-.044-.987-.054-1.284-.054-3.781 0-2.498.01-2.798.054-3.781.04-.915.194-1.408.322-1.738.15-.405.388-.775.703-1.075.303-.31.669-.548 1.075-.698.329-.128.826-.282 1.737-.322.988-.044 1.284-.055 3.782-.055 2.502 0 2.798.011 3.782.055.915.04 1.409.194 1.738.322.406.15.775.387 1.075.698.31.304.549.67.699 1.075.128.33.281.827.322 1.738.043.987.054 1.283.054 3.78 0 2.498-.01 2.791-.054 3.778z" fill="#9E9E9E"/><path d="M9.598 5.38a4.81 4.81 0 00-4.81 4.808 4.81 4.81 0 009.62 0 4.81 4.81 0 00-4.81-4.808zm0 7.928a3.12 3.12 0 110-6.24 3.12 3.12 0 010 6.24zM15.72 5.19a1.123 1.123 0 11-2.245-.001 1.123 1.123 0 012.246 0z" fill="#9E9E9E"/></symbol><symbol id="icon-like"><path d="M15.872 1.326a4.526 4.526 0 00-6.401 0l-.872.872-.872-.872a4.526 4.526 0 10-6.401 6.401L8.599 15l7.273-7.273a4.524 4.524 0 000-6.4z" fill="#7AB764"/></symbol><symbol id="icon-plus"><path d="M6 1v10M1 6h10" stroke="fff" stroke-width="1.5" stroke-linecap="round" stroke-linejoin="round"/></symbol><symbol id="icon-question"><path d="M6.317 6.25A2.25 2.25 0 0110.69 7c0 1.5-2.25 2.25-2.25 2.25m.06 3h.008M16 8.5a7.5 7.5 0 11-15 0 7.5 7.5 0 0115 0z" stroke="#181818" stroke-width="1.5" stroke-linecap="round" stroke-linejoin="round"/></symbol><symbol id="icon-rate"><path d="M16 .91L9.523 7.385l-3.41-3.409L1 9.091M16 .909h-4.09m4.09 0V5" stroke="#181818" stroke-width="1.5" stroke-linecap="round" stroke-linejoin="round"/></symbol><symbol id="icon-review"><path d="M16 8.583a6.984 6.984 0 01-.75 3.167 7.083 7.083 0 01-6.333 3.917 6.984 6.984 0 01-3.167-.75L1 16.5l1.583-4.75a6.983 6.983 0 01-.75-3.167A7.083 7.083 0 015.75 2.25a6.983 6.983 0 013.167-.75h.416A7.066 7.066 0 0116 8.167v.416z" stroke="#586EB6" stroke-width="1.5" stroke-linecap="round" stroke-linejoin="round"/></symbol><symbol id="icon-search"><path d="M16 16.5l-3.625-3.625m1.958-4.708A6.667 6.667 0 111 8.167a6.667 6.667 0 0113.333 0z" stroke="#181818" stroke-width="1.5" stroke-linecap="round" stroke-linejoin="round"/></symbol><symbol id="icon-user"><path d="M1 16.5v-1.667A3.333 3.333 0 014.333 11.5H11a3.333 3.333 0 013.333 3.333V16.5M7.667 8.167a3.333 3.333 0 110-6.667 3.333 3.333 0 010 6.667z" stroke="#181818" stroke-width="1.5" stroke-linecap="round" stroke-linejoin="round"/></symbol><symbol id="icon-video"><path d="M12.25 1.5h-7.5A3.75 3.75 0 001 5.25v7.5a3.75 3.75 0 003.75 3.75h7.5A3.75 3.75 0 0016 12.75v-7.5a3.75 3.75 0 00-3.75-3.75z" stroke="#181818" stroke-width="1.5" stroke-linecap="round" stroke-linejoin="round"/><path d="M11.5 8.527a3 3 0 11-5.935.88 3 3 0 015.935-.88z" stroke="#181818" stroke-width="1.5" stroke-linecap="round" stroke-linejoin="round"/></symbol><symbol id="icon-vk"><path d="M18.644 9.337a1.248 1.248 0 00-.06-.117c-.309-.564-.898-1.256-1.769-2.077l-.018-.019-.01-.009-.009-.01h-.009c-.395-.382-.645-.639-.75-.77-.192-.25-.234-.504-.13-.761.074-.194.352-.604.834-1.23.253-.333.453-.599.601-.8 1.068-1.44 1.531-2.36 1.39-2.762l-.056-.094c-.037-.056-.133-.108-.287-.155C18.217.486 18.02.48 17.78.51l-2.667.019a.341.341 0 00-.185.004l-.12.029-.047.023-.037.028a.412.412 0 00-.102.099.645.645 0 00-.092.164c-.29.758-.62 1.463-.991 2.114-.229.389-.438.725-.63 1.01a4.843 4.843 0 01-.481.63c-.13.135-.247.243-.352.324-.105.082-.185.116-.24.103a6.63 6.63 0 01-.158-.037.621.621 0 01-.209-.23 1.044 1.044 0 01-.106-.367 4.1 4.1 0 01-.033-.38 8.111 8.111 0 01.005-.451c.007-.195.01-.326.01-.395 0-.238.004-.496.013-.775l.023-.663c.007-.162.01-.335.01-.516 0-.182-.011-.324-.033-.428a1.482 1.482 0 00-.097-.3.505.505 0 00-.19-.226 1.06 1.06 0 00-.31-.127C10.433.087 10.016.046 9.51.04 8.362.027 7.624.103 7.297.266a1.25 1.25 0 00-.352.281C6.835.685 6.82.76 6.9.773c.37.056.633.19.787.404l.056.113c.043.081.086.225.13.432.042.206.07.435.082.686a7.37 7.37 0 010 1.174c-.03.326-.06.58-.087.761a1.54 1.54 0 01-.237.648.16.16 0 01-.046.047.685.685 0 01-.25.047c-.086 0-.191-.043-.315-.131a2.234 2.234 0 01-.384-.362 4.836 4.836 0 01-.45-.644 11.19 11.19 0 01-.518-.977L5.52 2.7c-.092-.176-.219-.43-.38-.766-.16-.335-.302-.66-.425-.973a.618.618 0 00-.222-.3L4.445.632a.972.972 0 00-.361-.14L1.547.508c-.26 0-.435.06-.528.179L.982.744a.308.308 0 00-.028.15c0 .07.019.154.056.254.37.884.773 1.736 1.208 2.556.435.82.814 1.482 1.134 1.982.321.502.649.975.982 1.42.333.444.554.729.662.854a6.1 6.1 0 00.255.282l.231.225c.148.15.366.33.653.54.287.21.605.417.954.621.348.203.754.37 1.217.498.463.128.914.18 1.352.155h1.065c.216-.019.38-.088.49-.207l.038-.047a.63.63 0 00.069-.173.966.966 0 00.032-.259c-.006-.27.014-.512.06-.728.047-.216.1-.379.158-.488a1.202 1.202 0 01.357-.414.599.599 0 01.074-.033c.148-.05.322-.001.523.146.2.147.389.33.565.545.176.216.387.459.634.728.247.27.463.47.648.602l.185.112c.124.075.284.144.482.207.197.063.37.078.518.047l2.37-.038c.235 0 .418-.039.547-.117.13-.078.207-.165.231-.258a.736.736 0 00.005-.32 1.186 1.186 0 00-.065-.249z" fill="#9E9E9E"/></symbol><symbol id="icon-watsapp"><path fill-rule="evenodd" clip-rule="evenodd" d="M15.817 3.547A9.13 9.13 0 009.296.827C4.215.827.079 4.987.077 10.102a9.32 9.32 0 001.23 4.638L0 19.547l4.887-1.29a9.164 9.164 0 004.405 1.129h.004c5.08 0 9.216-4.162 9.218-9.276a9.249 9.249 0 00-2.697-6.563zM9.296 17.82h-.003a7.617 7.617 0 01-3.9-1.075l-.28-.167-2.9.766.774-2.845-.182-.292a7.726 7.726 0 01-1.171-4.103c.001-4.251 3.439-7.71 7.665-7.71a7.59 7.59 0 015.417 2.261 7.689 7.689 0 012.242 5.455c-.002 4.251-3.439 7.71-7.662 7.71zm4.203-5.774c-.23-.116-1.363-.677-1.574-.754-.211-.078-.365-.116-.518.116-.154.232-.595.754-.73.908-.134.155-.268.175-.499.058-.23-.115-.972-.36-1.852-1.15-.685-.615-1.147-1.374-1.282-1.606-.134-.232 0-.345.101-.473.25-.311.5-.638.576-.792.077-.155.039-.29-.02-.407-.057-.115-.517-1.256-.71-1.72-.186-.452-.376-.391-.517-.398a9.15 9.15 0 00-.442-.009.844.844 0 00-.614.29c-.211.233-.806.793-.806 1.934s.825 2.243.94 2.398c.115.155 1.625 2.496 3.935 3.5.55.239.979.381 1.313.488a3.14 3.14 0 001.451.092c.443-.067 1.363-.561 1.555-1.102.192-.542.192-1.006.134-1.103-.057-.096-.211-.154-.441-.27z" fill="#9E9E9E"/></symbol><symbol id="icon-youtube"><path d="M18.849 2.685a2.345 2.345 0 00-1.65-1.65c-1.465-.4-7.325-.4-7.325-.4s-5.86 0-7.324.385A2.393 2.393 0 00.9 2.685C.514 4.15.514 7.187.514 7.187s0 3.052.386 4.501a2.345 2.345 0 001.65 1.65c1.48.4 7.324.4 7.324.4s5.86 0 7.325-.385a2.345 2.345 0 001.65-1.65c.385-1.464.385-4.5.385-4.5s.016-3.053-.385-4.518zM8.009 9.992V4.381l4.872 2.806-4.873 2.805z" fill="#9E9E9E"/></symbol></svg>