<svg width="19" height="11" fill="none" xmlns="http://www.w3.org/2000/svg"><path d="M18.644 9.337a1.248 1.248 0 00-.06-.117c-.309-.564-.898-1.256-1.769-2.077l-.018-.019-.01-.009-.009-.01h-.009c-.395-.382-.645-.639-.75-.77-.192-.25-.234-.504-.13-.761.074-.194.352-.604.834-1.23.253-.333.453-.599.601-.8 1.068-1.44 1.531-2.36 1.39-2.762l-.056-.094c-.037-.056-.133-.108-.287-.155C18.217.486 18.02.48 17.78.51l-2.667.019a.341.341 0 00-.185.004l-.12.029-.047.023-.037.028a.412.412 0 00-.102.099.645.645 0 00-.092.164c-.29.758-.62 1.463-.991 2.114-.229.389-.438.725-.63 1.01a4.843 4.843 0 01-.481.63c-.13.135-.247.243-.352.324-.105.082-.185.116-.24.103a6.63 6.63 0 01-.158-.037.621.621 0 01-.209-.23 1.044 1.044 0 01-.106-.367 4.1 4.1 0 01-.033-.38 8.111 8.111 0 01.005-.451c.007-.195.01-.326.01-.395 0-.238.004-.496.013-.775l.023-.663c.007-.162.01-.335.01-.516 0-.182-.011-.324-.033-.428a1.482 1.482 0 00-.097-.3.505.505 0 00-.19-.226 1.06 1.06 0 00-.31-.127C10.433.087 10.016.046 9.51.04 8.362.027 7.624.103 7.297.266a1.25 1.25 0 00-.352.281C6.835.685 6.82.76 6.9.773c.37.056.633.19.787.404l.056.113c.043.081.086.225.13.432.042.206.07.435.082.686a7.37 7.37 0 010 1.174c-.03.326-.06.58-.087.761a1.54 1.54 0 01-.237.648.16.16 0 01-.046.047.685.685 0 01-.25.047c-.086 0-.191-.043-.315-.131a2.234 2.234 0 01-.384-.362 4.836 4.836 0 01-.45-.644 11.19 11.19 0 01-.518-.977L5.52 2.7c-.092-.176-.219-.43-.38-.766-.16-.335-.302-.66-.425-.973a.618.618 0 00-.222-.3L4.445.632a.972.972 0 00-.361-.14L1.547.508c-.26 0-.435.06-.528.179L.982.744a.308.308 0 00-.028.15c0 .07.019.154.056.254.37.884.773 1.736 1.208 2.556.435.82.814 1.482 1.134 1.982.321.502.649.975.982 1.42.333.444.554.729.662.854a6.1 6.1 0 00.255.282l.231.225c.148.15.366.33.653.54.287.21.605.417.954.621.348.203.754.37 1.217.498.463.128.914.18 1.352.155h1.065c.216-.019.38-.088.49-.207l.038-.047a.63.63 0 00.069-.173.966.966 0 00.032-.259c-.006-.27.014-.512.06-.728.047-.216.1-.379.158-.488a1.202 1.202 0 01.357-.414.599.599 0 01.074-.033c.148-.05.322-.001.523.146.2.147.389.33.565.545.176.216.387.459.634.728.247.27.463.47.648.602l.185.112c.124.075.284.144.482.207.197.063.37.078.518.047l2.37-.038c.235 0 .418-.039.547-.117.13-.078.207-.165.231-.258a.736.736 0 00.005-.32 1.186 1.186 0 00-.065-.249z" fill="#9E9E9E"/></svg>