<svg width="19" height="20" fill="none" xmlns="http://www.w3.org/2000/svg"><path d="M18.907 6.33c-.044-.994-.205-1.678-.436-2.27A4.568 4.568 0 0017.39 2.4a4.608 4.608 0 00-1.657-1.08c-.596-.23-1.277-.39-2.271-.435C12.457.838 12.14.827 9.598.827s-2.86.01-3.859.055c-.995.043-1.679.204-2.271.435a4.569 4.569 0 00-1.661 1.082A4.609 4.609 0 00.728 4.056c-.23.596-.391 1.276-.435 2.27C.245 7.33.234 7.647.234 10.189s.011 2.86.055 3.859c.044.994.205 1.678.435 2.27a4.617 4.617 0 001.083 1.66 4.608 4.608 0 001.657 1.08c.596.23 1.276.391 2.271.435.999.044 1.317.055 3.86.055 2.541 0 2.86-.011 3.858-.055.995-.044 1.679-.205 2.272-.435a4.789 4.789 0 002.74-2.74c.23-.595.39-1.276.434-2.27.044-.999.055-1.317.055-3.859 0-2.541-.003-2.86-.047-3.858zm-1.686 7.643c-.04.915-.194 1.408-.322 1.738a3.106 3.106 0 01-1.778 1.777c-.33.128-.827.282-1.737.322-.988.044-1.284.055-3.782.055-2.499 0-2.799-.011-3.783-.055-.914-.04-1.408-.194-1.737-.322a2.882 2.882 0 01-1.075-.699 2.911 2.911 0 01-.699-1.075c-.128-.329-.281-.826-.322-1.737-.044-.987-.054-1.284-.054-3.781 0-2.498.01-2.798.054-3.781.04-.915.194-1.408.322-1.738.15-.405.388-.775.703-1.075.303-.31.669-.548 1.075-.698.329-.128.826-.282 1.737-.322.988-.044 1.284-.055 3.782-.055 2.502 0 2.798.011 3.782.055.915.04 1.409.194 1.738.322.406.15.775.387 1.075.698.31.304.549.67.699 1.075.128.33.281.827.322 1.738.043.987.054 1.283.054 3.78 0 2.498-.01 2.791-.054 3.778z" fill="#9E9E9E"/><path d="M9.598 5.38a4.81 4.81 0 00-4.81 4.808 4.81 4.81 0 009.62 0 4.81 4.81 0 00-4.81-4.808zm0 7.928a3.12 3.12 0 110-6.24 3.12 3.12 0 010 6.24zM15.72 5.19a1.123 1.123 0 11-2.245-.001 1.123 1.123 0 012.246 0z" fill="#9E9E9E"/></svg>